<svg width="307" height="307" viewBox="0 0 307 307" fill="none" xmlns="http://www.w3.org/2000/svg">
<path d="M279.617 178.987C279.793 178.117 280.166 177.365 280.736 176.732C281.314 176.1 282.006 175.641 282.812 175.355C283.618 175.077 284.455 175.026 285.326 175.202C286.203 175.38 286.955 175.753 287.581 176.322C288.213 176.899 288.668 177.59 288.947 178.396C289.233 179.202 289.287 180.041 289.111 180.911C288.933 181.789 288.556 182.54 287.981 183.164C287.41 183.798 286.723 184.254 285.917 184.532C285.118 184.82 284.279 184.874 283.402 184.696C282.531 184.52 281.78 184.143 281.149 183.566C280.515 182.996 280.056 182.307 279.77 181.501C279.49 180.702 279.439 179.865 279.617 178.987Z" fill="black"/>
<path d="M270.463 195.807L274.037 197.303L273.565 198.431C273.33 198.993 273.208 199.474 273.199 199.876C273.196 200.281 273.288 200.642 273.474 200.958C273.664 201.284 273.935 201.605 274.289 201.92L274.863 202.458L292.993 201.168L291.089 205.718L278.804 206.328L287.327 214.705L285.449 219.193L271.735 205.028C271.107 204.359 270.561 203.649 270.096 202.898C269.628 202.153 269.344 201.33 269.244 200.429C269.144 199.528 269.332 198.508 269.808 197.371L270.463 195.807Z" fill="black"/>
<path d="M264.205 211.392L283.271 223.425L280.727 227.456L272.861 222.491L267.696 230.674L275.563 235.639L273.024 239.66L253.959 227.627L256.497 223.606L264.373 228.576L269.537 220.393L261.661 215.423L264.205 211.392Z" fill="black"/>
<path d="M268.943 245.065L265.756 248.594L255.233 239.091L255.107 239.23L259.101 255.964L256.304 259.06L239.572 243.949L242.767 240.412L253.298 249.922L253.409 249.8L249.444 233.018L252.211 229.954L268.943 245.065Z" fill="black"/>
<path d="M237.755 245.523L251.866 263.106L244.826 268.756C243.533 269.795 242.3 270.469 241.128 270.779C239.956 271.089 238.879 271.078 237.897 270.746C236.92 270.42 236.078 269.816 235.371 268.935C234.819 268.248 234.472 267.534 234.329 266.792C234.19 266.057 234.228 265.33 234.442 264.612C234.656 263.905 235.013 263.236 235.515 262.608L235.378 262.436C234.685 262.945 233.907 263.259 233.043 263.378C232.173 263.502 231.302 263.396 230.431 263.061C229.564 262.731 228.783 262.134 228.09 261.27C227.341 260.337 226.904 259.318 226.78 258.213C226.655 257.119 226.871 255.999 227.43 254.854C227.988 253.71 228.926 252.609 230.242 251.552L237.755 245.523ZM236.476 251.546L233.446 253.978C232.41 254.81 231.813 255.614 231.655 256.39C231.501 257.172 231.691 257.895 232.224 258.559C232.614 259.045 233.076 259.38 233.609 259.564C234.142 259.748 234.712 259.771 235.317 259.634C235.916 259.501 236.513 259.196 237.108 258.718L240.225 256.217L236.476 251.546ZM242.244 258.732L239.488 260.944C238.978 261.353 238.597 261.804 238.345 262.299C238.091 262.804 237.983 263.314 238.021 263.829C238.052 264.35 238.254 264.842 238.626 265.305C239.136 265.941 239.773 266.271 240.538 266.298C241.297 266.329 242.088 266.013 242.913 265.352L245.737 263.085L242.244 258.732Z" fill="black"/>
<path d="M222.408 257.479L233.732 276.975L220.595 284.605L218.622 281.207L227.636 275.97L224.938 271.325L216.599 276.169L214.625 272.77L222.964 267.927L220.26 263.272L211.207 268.53L209.234 265.132L222.408 257.479Z" fill="black"/>
<path d="M207.311 266.13L215.626 287.086L207.358 290.367C205.769 290.997 204.294 291.231 202.934 291.068C201.578 290.911 200.393 290.414 199.382 289.576C198.366 288.747 197.582 287.637 197.03 286.245C196.478 284.853 196.291 283.506 196.469 282.204C196.647 280.902 197.188 279.728 198.092 278.682C198.988 277.64 200.242 276.799 201.852 276.16L207.122 274.069L208.53 277.62L203.977 279.427C203.124 279.765 202.48 280.19 202.044 280.703C201.603 281.225 201.351 281.803 201.286 282.436C201.218 283.079 201.32 283.745 201.594 284.434C201.87 285.13 202.25 285.682 202.736 286.089C203.217 286.506 203.794 286.747 204.467 286.812C205.143 286.883 205.911 286.748 206.77 286.407L209.758 285.222L202.881 267.888L207.311 266.13Z" fill="black"/>
<path d="M173.055 291.652L177.769 290.641C177.986 291.232 178.278 291.736 178.645 292.153C179.014 292.577 179.443 292.913 179.931 293.16C180.42 293.408 180.956 293.564 181.54 293.626C182.116 293.69 182.72 293.654 183.352 293.519C184.493 293.274 185.426 292.777 186.151 292.028C186.878 291.287 187.359 290.328 187.594 289.152C187.831 287.982 187.786 286.634 187.458 285.105C187.12 283.534 186.604 282.263 185.908 281.294C185.205 280.327 184.372 279.661 183.408 279.298C182.444 278.934 181.406 278.871 180.294 279.11C179.669 279.244 179.11 279.45 178.614 279.729C178.111 280.01 177.686 280.353 177.337 280.758C176.99 281.17 176.73 281.635 176.556 282.153C176.374 282.672 176.293 283.237 176.312 283.849L171.593 284.839C171.497 283.801 171.593 282.76 171.879 281.715C172.16 280.679 172.63 279.704 173.289 278.789C173.943 277.883 174.787 277.094 175.821 276.422C176.85 275.758 178.071 275.275 179.485 274.971C181.451 274.55 183.304 274.617 185.045 275.174C186.779 275.733 188.275 276.759 189.534 278.253C190.785 279.749 191.668 281.695 192.183 284.091C192.699 286.495 192.685 288.637 192.143 290.517C191.601 292.398 190.649 293.945 189.289 295.161C187.93 296.383 186.282 297.202 184.344 297.618C183.067 297.892 181.844 297.967 180.677 297.842C179.502 297.719 178.417 297.404 177.423 296.896C176.43 296.396 175.561 295.708 174.818 294.832C174.067 293.957 173.479 292.897 173.055 291.652Z" fill="black"/>
<path d="M168.605 300.073L163.853 300.257L163.306 286.088L163.119 286.096L153.93 300.64L149.761 300.801L148.891 278.272L153.655 278.088L154.202 292.268L154.367 292.261L163.61 277.704L167.735 277.545L168.605 300.073Z" fill="black"/>
<path d="M144.497 296.644L143.998 300.543L125.631 298.194L126.13 294.296L132.976 295.172L135.337 276.706L140.011 277.304L137.65 295.769L144.497 296.644Z" fill="black"/>
<path d="M126.797 275.34L120.735 297.055L106.103 292.971L107.16 289.185L117.201 291.988L118.645 286.814L109.357 284.221L110.414 280.436L119.702 283.029L121.149 277.844L111.066 275.029L112.123 271.244L126.797 275.34Z" fill="black"/>
<path d="M103.258 287.862L101.647 291.447L84.7588 283.854L86.3703 280.269L92.6657 283.1L100.299 266.122L104.596 268.054L96.963 285.032L103.258 287.862Z" fill="black"/>
<path d="M75.3628 250.552L75.4354 262.586L76.7424 263.559L82.4805 255.85L86.3043 258.696L72.8431 276.782L69.0193 273.936L74.3959 266.712L73.6276 266.14L62.246 268.894L57.4861 265.351L70.7862 262.214L70.6206 247.022L75.3628 250.552Z" fill="black"/>
<path d="M47.7389 239.251C49.5271 237.563 51.3683 236.467 53.2624 235.961C55.1514 235.45 56.9759 235.465 58.7358 236.004C60.4853 236.543 62.0424 237.535 63.4073 238.982C64.7823 240.439 65.6852 242.059 66.1162 243.842C66.5472 245.625 66.4528 247.445 65.8329 249.301C65.2131 251.157 64.0117 252.926 62.2287 254.608C60.4405 256.296 58.6018 257.395 56.7128 257.906C54.8237 258.417 53.0045 258.403 51.255 257.864C49.5001 257.33 47.9352 256.334 46.5603 254.877C45.1954 253.43 44.2975 251.816 43.8665 250.033C43.4251 248.25 43.5144 246.43 44.1342 244.574C44.7491 242.712 45.9506 240.938 47.7389 239.251ZM51.0554 242.766C49.897 243.859 49.0838 244.954 48.6158 246.051C48.1428 247.143 47.9954 248.196 48.1736 249.208C48.3518 250.22 48.8363 251.146 49.627 251.984C50.4177 252.822 51.3132 253.359 52.3135 253.596C53.3138 253.833 54.3754 253.749 55.4981 253.346C56.6158 252.937 57.7539 252.186 58.9122 251.093C60.0706 250 60.8863 248.908 61.3593 247.816C61.8274 246.718 61.9722 245.663 61.794 244.651C61.6158 243.639 61.1313 242.714 60.3406 241.875C59.5499 241.037 58.6543 240.5 57.654 240.263C56.6537 240.026 55.5947 240.112 54.477 240.521C53.3543 240.925 52.2137 241.673 51.0554 242.766Z" fill="black"/>
<path d="M31.4055 221.047L34.0385 225.086C33.5639 225.5 33.1979 225.954 32.9404 226.446C32.6768 226.942 32.5167 227.462 32.4602 228.007C32.4037 228.552 32.4508 229.108 32.6017 229.676C32.7486 230.237 32.9984 230.788 33.351 231.329C33.9882 232.307 34.7861 233 35.7447 233.409C36.6972 233.822 37.7648 233.927 38.9475 233.726C40.1241 233.528 41.3672 233.003 42.6767 232.149C44.0232 231.272 45.0242 230.334 45.6798 229.338C46.3314 228.335 46.6543 227.318 46.6487 226.288C46.6431 225.258 46.3296 224.267 45.7085 223.314C45.3598 222.779 44.9665 222.33 44.5285 221.967C44.0865 221.598 43.6141 221.323 43.1111 221.143C42.602 220.967 42.0746 220.89 41.5288 220.913C40.979 220.93 40.422 221.056 39.8577 221.293L37.2432 217.241C38.1782 216.781 39.1847 216.497 40.2626 216.39C41.3304 216.281 42.4093 216.371 43.4994 216.659C44.5794 216.945 45.6184 217.45 46.6165 218.175C47.6045 218.898 48.4932 219.865 49.2827 221.076C50.3808 222.76 50.9814 224.515 51.0847 226.34C51.184 228.159 50.7617 229.923 49.8178 231.634C48.8699 233.338 47.3692 234.859 45.3157 236.198C43.2561 237.54 41.2514 238.295 39.3016 238.462C37.3518 238.629 35.566 238.295 33.9441 237.46C32.3161 236.629 30.9611 235.384 29.879 233.724C29.1656 232.629 28.6581 231.515 28.3563 230.38C28.0506 229.239 27.9564 228.113 28.0737 227.003C28.1849 225.897 28.5164 224.84 29.0683 223.832C29.6162 222.817 30.3952 221.889 31.4055 221.047Z" fill="black"/>
<path d="M28.22 213.775L26.2015 208.796C25.5286 207.137 25.2182 205.599 25.2701 204.184C25.3126 202.766 25.6877 201.532 26.3955 200.485C27.1034 199.438 28.1184 198.65 29.4406 198.122C30.7505 197.583 32.0411 197.436 33.3124 197.681C34.5769 197.928 35.7355 198.54 36.7881 199.515C37.8379 200.483 38.6992 201.797 39.3721 203.456L42.5364 211.26L21.6429 219.732L19.856 215.324L37.1992 208.293L35.8218 204.895C35.4992 204.1 35.0848 203.488 34.5785 203.059C34.0654 202.634 33.5143 202.378 32.9252 202.292C32.3265 202.203 31.7429 202.277 31.1743 202.515C30.3418 202.845 29.7681 203.442 29.4533 204.306C29.1288 205.166 29.2079 206.191 29.6905 207.381L31.709 212.36L28.22 213.775ZM12.7415 197.777L33.635 189.306L35.4219 193.713L14.5284 202.184L12.7415 197.777Z" fill="black"/>
<path d="M8.15809 177.17L12.0007 176.345L14.1395 186.312L32.3405 182.406L33.3406 187.067L11.297 191.797L8.15809 177.17Z" fill="black"/>
<path d="M7.25394 171.625L6.97885 166.877L21.1341 166.057L21.1233 165.87L6.40448 156.964L6.16314 152.799L28.6708 151.495L28.9466 156.253L14.7803 157.074L14.7899 157.239L29.5229 166.199L29.7616 170.321L7.25394 171.625Z" fill="black"/>
<path d="M28.6941 148.485L6.30937 145.797L6.87751 141.065L16.1134 142.173L17.2667 132.566L8.03085 131.457L8.59768 126.735L30.9824 129.423L30.4156 134.144L21.1688 133.034L20.0154 142.642L29.2623 143.752L28.6941 148.485Z" fill="black"/>
<path d="M32.6776 122.701L31.1744 127.583L11.9178 113.51L13.7256 107.639L37.5598 106.846L36.0566 111.728L17.7714 112.006L17.7196 112.175L32.6776 122.701ZM24.1142 120.398L27.6649 108.867L31.221 109.962L27.6703 121.493L24.1142 120.398Z" fill="black"/>
<path d="M40.3177 92.3058C39.8917 93.0849 39.3126 93.6926 38.5806 94.1287C37.8422 94.5614 37.0453 94.7948 36.1901 94.8291C35.3385 94.8569 34.5231 94.6578 33.7439 94.2317C32.9584 93.8021 32.3507 93.2231 31.921 92.4946C31.4883 91.7561 31.2581 90.9611 31.2303 90.1094C31.1961 89.2542 31.392 88.4371 31.818 87.6579C32.2476 86.8723 32.8298 86.2664 33.5648 85.8402C34.2968 85.4041 35.0887 85.1721 35.9403 85.1443C36.7891 85.1065 37.6062 85.3024 38.3918 85.732C39.1709 86.158 39.7768 86.7403 40.2095 87.4788C40.6457 88.2108 40.8809 89.0044 40.9151 89.8596C40.9464 90.7048 40.7473 91.5202 40.3177 92.3058Z" fill="black"/>
<path d="M52.2592 80.4603L34.9887 65.968L38.0528 62.3166L45.6676 68.7065L45.8587 68.4788L43.4591 55.8739L47.1317 51.4972L49.4866 64.3952L64.4659 65.9136L60.8004 70.2819L49.7301 69.0544L50.4154 72.6905L55.3233 76.8089L52.2592 80.4603Z" fill="black"/>
<path d="M73.5315 43.3118C75.1187 45.1894 76.1132 47.0876 76.5148 49.0064C76.922 50.9205 76.8085 52.7415 76.1742 54.4693C75.5407 56.1869 74.4645 57.6876 72.9457 58.9716C71.4156 60.2651 69.7487 61.0784 67.9449 61.4115C66.1412 61.7447 64.3295 61.5512 62.5099 60.8311C60.6903 60.111 58.9893 58.8149 57.4068 56.9429C55.8196 55.0654 54.8223 53.1695 54.4151 51.2554C54.0079 49.3414 54.121 47.5255 54.7544 45.808C55.3831 44.0849 56.4625 42.5766 57.9926 41.2831C59.5115 39.9992 61.1728 39.1906 62.9765 38.8574C64.7811 38.5139 66.5932 38.7022 68.4129 39.4224C70.2381 40.1377 71.9443 41.4342 73.5315 43.3118ZM69.8408 46.4318C68.8127 45.2155 67.7635 44.3439 66.6932 43.8167C65.6286 43.2849 64.5859 43.0803 63.5654 43.2031C62.5448 43.3259 61.5945 43.7592 60.7146 44.503C59.8347 45.2469 59.2492 46.1118 58.9583 47.0977C58.6674 48.0836 58.6927 49.1481 59.0344 50.2912C59.3816 51.4295 60.0693 52.6068 61.0975 53.823C62.1256 55.0392 63.172 55.9133 64.2367 56.4451C65.3069 56.9723 66.3524 57.1744 67.3729 57.0517C68.3935 56.9289 69.3438 56.4956 70.2237 55.7517C71.1036 55.0078 71.6891 54.143 71.98 53.157C72.2709 52.1711 72.2428 51.109 71.8955 49.9707C71.5539 48.8276 70.869 47.648 69.8408 46.4318Z" fill="black"/>
<path d="M85.0006 30.6847C84.4731 29.9649 83.7968 29.5632 82.9717 29.4795C82.1466 29.3958 81.2412 29.6451 80.2554 30.2274C79.5856 30.6231 79.0761 31.052 78.7268 31.514C78.3738 31.9698 78.1711 32.4347 78.1188 32.9089C78.0728 33.3793 78.1729 33.823 78.4193 34.2401C78.612 34.5951 78.8638 34.8555 79.1748 35.0212C79.4922 35.1832 79.849 35.275 80.2453 35.2966C80.6379 35.3119 81.0617 35.2789 81.5166 35.1977C81.9678 35.1102 82.4331 34.9887 82.9124 34.8334L84.9028 34.2202C85.8615 33.9096 86.788 33.7032 87.6824 33.6011C88.5767 33.4989 89.4192 33.5255 90.2098 33.6807C91.0005 33.8358 91.7227 34.1422 92.3766 34.5998C93.0369 35.0537 93.609 35.6831 94.0931 36.4882C94.7886 37.6799 95.0937 38.889 95.0086 40.1156C94.926 41.3322 94.4642 42.5128 93.6231 43.6575C92.7846 44.7921 91.5755 45.826 89.9958 46.7592C88.4288 47.6849 86.9221 48.2511 85.4757 48.4577C84.0357 48.6606 82.7121 48.4835 81.5051 47.9265C80.3007 47.3594 79.2702 46.3869 78.4137 45.0091L82.385 42.6631C82.8137 43.2878 83.3212 43.7211 83.9073 43.963C84.496 44.1948 85.1337 44.2571 85.8205 44.1498C86.5097 44.0324 87.2082 43.7647 87.9159 43.3466C88.611 42.936 89.1547 42.4784 89.5471 41.9738C89.9458 41.4656 90.1809 40.9473 90.2525 40.4192C90.3241 39.891 90.2218 39.3932 89.9455 38.9256C89.688 38.4896 89.3419 38.1996 88.9074 38.0557C88.4792 37.908 87.9571 37.8755 87.3411 37.9581C86.7313 38.037 86.0222 38.2002 85.2137 38.4477L82.7865 39.1655C80.9148 39.7342 79.2549 39.8752 77.8069 39.5884C76.3589 39.3016 75.2144 38.4391 74.3733 37.001C73.6727 35.8294 73.3789 34.6178 73.492 33.3663C73.6113 32.1109 74.0814 30.9083 74.9024 29.7585C75.7234 28.6087 76.8415 27.6157 78.257 26.7795C79.6976 25.9285 81.1007 25.4321 82.466 25.2904C83.8377 25.1449 85.0831 25.334 86.2023 25.8578C87.3214 26.3815 88.232 27.2159 88.9341 28.361L85.0006 30.6847Z" fill="black"/>
<path d="M89.895 20.4135L94.8724 18.4818L103.178 25.6733L103.383 25.5937L104.663 14.6819L109.64 12.7501L107.248 29.3133L110.131 36.7434L105.719 38.4562L102.835 31.026L89.895 20.4135Z" fill="black"/>
<path d="M130.533 15.5468C130.277 15.0513 129.973 14.6292 129.619 14.2805C129.264 13.9245 128.861 13.6455 128.409 13.4434C127.963 13.2327 127.473 13.1018 126.939 13.0507C126.412 12.9983 125.847 13.0321 125.242 13.1522C124.112 13.3767 123.174 13.8548 122.429 14.5865C121.691 15.3167 121.191 16.2653 120.929 17.4322C120.666 18.5919 120.687 19.942 120.993 21.4825C121.299 23.0229 121.794 24.2865 122.476 25.2733C123.158 26.2601 123.984 26.9528 124.954 27.3512C125.922 27.7425 126.989 27.8223 128.155 27.5907C129.214 27.3804 130.08 27.0138 130.754 26.4908C131.434 25.9591 131.903 25.3084 132.162 24.5387C132.428 23.7676 132.467 22.9106 132.28 21.9676L133.258 21.9192L127.557 23.0518L126.857 19.5318L136.111 17.6934L136.664 20.4792C137.05 22.4227 136.972 24.1743 136.429 25.7338C135.884 27.2861 134.967 28.5832 133.678 29.625C132.387 30.6596 130.813 31.3614 128.955 31.7304C126.882 32.1423 124.97 32.047 123.219 31.4446C121.467 30.8349 119.984 29.7715 118.77 28.2544C117.561 26.7286 116.725 24.7996 116.262 22.4674C115.906 20.675 115.847 19.0255 116.087 17.5188C116.332 16.0036 116.829 14.6628 117.577 13.4965C118.326 12.3301 119.276 11.367 120.427 10.6071C121.578 9.84719 122.884 9.32208 124.345 9.03177C125.597 8.78293 126.8 8.73482 127.953 8.88742C129.104 9.03283 130.163 9.35371 131.129 9.85006C132.103 10.345 132.947 10.9966 133.662 11.805C134.374 12.6062 134.915 13.5388 135.284 14.6029L130.533 15.5468Z" fill="black"/>
<path d="M144.541 6.71005L146.192 29.195L141.438 29.544L139.787 7.0591L144.541 6.71005Z" fill="black"/>
<path d="M169.37 7.02856L168.327 29.5498L164.214 29.3593L155.073 14.7304L154.908 14.7228L154.251 28.8976L149.489 28.6769L150.533 6.15562L154.712 6.34927L163.777 20.9635L163.974 20.9727L164.631 6.80893L169.37 7.02856Z" fill="black"/>
<path d="M197.632 13.1328L202.218 14.4318L198.228 28.519C197.78 30.1007 197.01 31.3777 195.918 32.35C194.834 33.3243 193.523 33.9523 191.987 34.234C190.452 34.5087 188.788 34.3921 186.994 33.8841C185.194 33.3741 183.712 32.5997 182.549 31.561C181.389 30.5153 180.602 29.2932 180.19 27.8949C179.777 26.4966 179.795 25.0066 180.243 23.4249L184.233 9.33776L188.819 10.6368L184.94 24.332C184.706 25.1582 184.678 25.9436 184.856 26.6882C185.041 27.4347 185.414 28.0856 185.974 28.6408C186.533 29.196 187.255 29.5986 188.137 29.8486C189.027 30.1006 189.852 30.136 190.613 29.9548C191.381 29.7756 192.036 29.4158 192.578 28.8752C193.127 28.3366 193.519 27.6542 193.753 26.8281L197.632 13.1328Z" fill="black"/>
<path d="M225.56 24.9573L215.783 45.2724L212.073 43.4869L209.389 26.447L209.24 26.3754L203.086 39.1616L198.791 37.0945L208.568 16.7794L212.338 18.5935L214.957 35.59L215.136 35.676L221.285 22.8997L225.56 24.9573Z" fill="black"/>
<path d="M234.171 30.5213L222.068 49.5429L218.046 46.984L230.149 27.9625L234.171 30.5213Z" fill="black"/>
<path d="M242.012 35.9097L235.357 52.6077L235.519 52.7404L250.606 42.9634L254.691 46.3156L234.38 58.8128L229.632 54.9158L237.918 32.5505L242.012 35.9097Z" fill="black"/>
<path d="M241.359 64.9498L258.201 49.9611L268.301 61.3095L265.365 63.9222L258.434 56.1347L254.421 59.7062L260.832 66.9099L257.896 69.5226L251.485 62.3189L247.464 65.8978L254.424 73.7182L251.488 76.331L241.359 64.9498Z" fill="black"/>
<path d="M253.211 78.4481L272.098 66.1367L276.955 73.5883C277.885 75.0147 278.424 76.3984 278.57 77.7393C278.728 79.0824 278.514 80.3209 277.931 81.4548C277.357 82.5908 276.446 83.5656 275.198 84.3791C273.944 85.1967 272.689 85.6295 271.432 85.6776C270.182 85.7216 268.982 85.3866 267.833 84.6724C266.689 83.9644 265.643 82.8849 264.697 81.434L261.445 76.4447L264.655 74.3528L267.486 78.6964C267.983 79.4588 268.5 80.024 269.038 80.3918C269.576 80.7597 270.134 80.9304 270.712 80.9038C271.294 80.8834 271.896 80.6708 272.517 80.266C273.144 79.8572 273.591 79.3865 273.857 78.8539C274.127 78.3274 274.206 77.7369 274.095 77.0824C273.994 76.4299 273.693 75.7194 273.192 74.9509L271.436 72.258L255.814 82.4414L253.211 78.4481ZM268.455 83.0453L262.919 93.3421L260.046 88.9338L265.647 78.7385L268.455 83.0453Z" fill="black"/>
<path d="M283.268 99.2683C284.042 98.8238 284.516 98.1962 284.691 97.3855C284.865 96.5747 284.718 95.6472 284.248 94.603C283.929 93.8935 283.56 93.3396 283.139 92.9412C282.725 92.5399 282.286 92.2869 281.82 92.1824C281.358 92.0845 280.906 92.1349 280.464 92.3335C280.09 92.4856 279.803 92.7071 279.604 92.9978C279.408 93.2952 279.277 93.6397 279.212 94.0312C279.153 94.4197 279.139 94.8445 279.169 95.3056C279.206 95.7637 279.275 96.2396 279.376 96.7332L279.765 98.7793C279.968 99.7665 280.07 100.71 280.072 101.61C280.075 102.51 279.955 103.345 279.713 104.113C279.471 104.882 279.087 105.566 278.559 106.165C278.035 106.771 277.346 107.27 276.492 107.662C275.231 108.221 273.996 108.39 272.786 108.169C271.586 107.952 270.464 107.363 269.419 106.4C268.385 105.441 267.491 104.125 266.739 102.451C265.993 100.791 265.597 99.231 265.552 97.7707C265.51 96.317 265.833 95.0213 266.52 93.8834C267.217 92.7492 268.298 91.8329 269.762 91.1343L271.653 95.3413C270.985 95.6981 270.498 96.1544 270.193 96.7101C269.897 97.2695 269.764 97.8964 269.795 98.5907C269.835 99.2888 270.024 100.013 270.361 100.762C270.692 101.499 271.087 102.09 271.545 102.536C272.005 102.988 272.494 103.279 273.011 103.409C273.528 103.539 274.035 103.492 274.53 103.269C274.992 103.062 275.318 102.75 275.509 102.334C275.704 101.925 275.794 101.41 275.78 100.788C275.769 100.174 275.686 99.4507 275.529 98.6197L275.085 96.1279C274.727 94.2047 274.771 92.5394 275.216 91.1321C275.662 89.7248 276.646 88.6829 278.168 88.0065C279.41 87.44 280.647 87.2823 281.879 87.5334C283.113 87.7911 284.256 88.3916 285.308 89.335C286.359 90.2783 287.222 91.4997 287.897 92.999C288.583 94.5252 288.921 95.9746 288.91 97.3472C288.903 98.7266 288.577 99.9433 287.932 100.998C287.288 102.052 286.357 102.864 285.141 103.435L283.268 99.2683Z" fill="black"/>
<path d="M294.039 110.067L272.594 117.026L271.123 112.493L292.567 105.533L294.039 110.067Z" fill="black"/>
<path d="M291.892 115.702L295.744 114.921L299.421 133.068L295.57 133.849L294.199 127.084L275.954 130.781L275.018 126.163L293.263 122.466L291.892 115.702Z" fill="black"/>
<path d="M300.016 136.874L300.222 142.209L290.718 147.721L290.726 147.941L300.627 152.703L300.833 158.038L285.951 150.384L277.987 150.691L277.804 145.961L285.768 145.653L300.016 136.874Z" fill="black"/>
</svg>
